Coordinates
version=1
nRows=43
nColumns=12
inDegrees=yes

Units are S.I. units (second, meters, Newtons, ...)
Angles are in degrees

endheader
time	SC_y	SC_z	SC_x	AC_y	AC_z	AC_x	GH_y	GH_z	GH_yy	EL_x	PS_y
       0.0              -36.13          24.25          17.49          46.58          -15.4          6.815          127.1          5.706          106.8          120.2          49.76
   0.03232              -36.13          24.24          17.49          46.58          -15.4          6.812          127.1          5.717          106.8          120.2          49.77
   0.06464              -36.12          24.24          17.51          46.58          -15.4          6.808          127.1          5.729          106.8          120.2          49.78
   0.09695              -36.12          24.24          17.52          46.58          -15.4          6.805          127.1          5.742          106.8          120.2          49.79
    0.1293              -36.12          24.24          17.53          46.58          -15.4          6.801          127.1          5.756          106.8          120.2          49.81
    0.1616              -36.11          24.23          17.54          46.58         -15.39          6.797          127.1           5.77          106.8          120.1          49.82
    0.1939              -36.11          24.23          17.55          46.58         -15.39          6.793          127.1          5.785          106.8          120.1          49.83
    0.2262               -36.1          24.23          17.57          46.58         -15.39          6.788          127.1          5.802          106.9          120.1          49.85
    0.2585               -36.1          24.23          17.58          46.58         -15.38          6.783          127.1           5.82          106.9          120.1          49.86
    0.2909               -36.1          24.22           17.6          46.58         -15.38          6.778          127.1          5.839          106.9          120.1          49.88
    0.3232              -36.09          24.22          17.62          46.58         -15.38          6.773          127.1          5.859          106.9          120.0          49.89
    0.3555              -36.08          24.22          17.63          46.58         -15.37          6.767          127.1          5.881          106.9          120.0          49.91
    0.3878              -36.08          24.21          17.65          46.57         -15.37           6.76          127.1          5.905          106.9          120.0          49.93
    0.4201              -36.07          24.21          17.68          46.57         -15.37          6.753          127.1           5.93          106.9          119.9          49.95
    0.4525              -36.07           24.2           17.7          46.57         -15.36          6.745          127.1          5.958          107.0          119.9          49.98
    0.4848              -36.06           24.2          17.72          46.57         -15.36          6.737          127.1          5.988          107.0          119.9           50.0
    0.5171              -36.05          24.19          17.75          46.57         -15.35          6.728          127.1           6.02          107.0          119.8          50.03
    0.5494              -36.04          24.19          17.78          46.57         -15.35          6.718          127.1          6.056          107.0          119.8          50.06
    0.5817              -36.03          24.18          17.82          46.57         -15.34          6.708          127.1          6.095          107.0          119.7          50.09
     0.614              -36.02          24.17          17.85          46.56         -15.33          6.696          127.1          6.137          107.1          119.7          50.13
    0.6464              -36.01          24.16          17.89          46.56         -15.32          6.683          127.1          6.184          107.1          119.6          50.17
    0.6787               -36.0          24.15          17.93          46.56         -15.32          6.669          127.1          6.235          107.1          119.5          50.21
     0.711              -35.98          24.14          17.98          46.56         -15.31          6.653          127.0          6.292          107.1          119.5          50.26
    0.7433              -35.97          24.13          18.04          46.55          -15.3          6.636          127.0          6.354          107.2          119.4          50.31
    0.7756              -35.95          24.12          18.09          46.55         -15.28          6.617          127.0          6.424          107.2          119.3          50.37
     0.808              -35.93          24.11          18.16          46.55         -15.27          6.595          127.0          6.502          107.3          119.2          50.43
    0.8403              -35.91          24.09          18.23          46.54         -15.26          6.571          127.0          6.589          107.3          119.1          50.51
    0.8726              -35.88          24.08          18.32          46.54         -15.24          6.544          127.0          6.687          107.4          118.9          50.59
    0.9049              -35.85          24.06          18.41          46.53         -15.22          6.514          127.0          6.798          107.5          118.8          50.68
    0.9372              -35.82          24.04          18.52          46.53          -15.2          6.479          127.0          6.924          107.5          118.6          50.79
    0.9695              -35.79          24.01          18.64          46.52         -15.18          6.439          126.9          7.068          107.6          118.4          50.91
     1.002              -35.74          23.98          18.78          46.51         -15.15          6.394          126.9          7.233          107.7          118.2          51.05
     1.034               -35.7          23.95          18.94           46.5         -15.12          6.341          126.9          7.423          107.8          118.0          51.21
     1.066              -35.64          23.91          19.13          46.49         -15.08           6.28          126.9          7.644          108.0          117.7           51.4
     1.099              -35.58          23.87          19.35          46.48         -15.04          6.209          126.8          7.903          108.1          117.3          51.61
     1.131               -35.5          23.82          19.61          46.46         -14.98          6.125          126.8          8.208          108.3          116.9          51.87
     1.163              -35.41          23.76          19.92          46.45         -14.92          6.025          126.7          8.571          108.5          116.5          52.18
     1.196               -35.3          23.68          20.28          46.43         -14.85          5.905          126.7          9.005          108.8          115.9          52.54
     1.228              -35.16          23.59          20.73           46.4         -14.76           5.76          126.6          9.531          109.1          115.2          52.98
      1.26               -35.0          23.48          21.27          46.37         -14.65          5.583          126.5          10.17          109.5          114.3          53.53
     1.293               -34.8          23.35          21.95          46.33         -14.52          5.364          126.4          10.97          109.9          113.3          54.19
     1.325              -34.55          23.18          22.79          46.29         -14.36          5.092          126.3          11.95          110.5          112.0          55.02
     1.357              -34.24          22.96          23.84          46.23         -14.15          4.749          126.1           13.2          111.3          110.4          56.07
